<?xml version="1.0" encoding="UTF-8" standalone="no"?>
<svg
   width="100%"
   height="100%"
   viewBox="0 0 510 510"
   version="1.1"
   xml:space="preserve"
   style="fill-rule:evenodd;clip-rule:evenodd;stroke-linejoin:round;stroke-miterlimit:2;"
   id="svg56"
   sodipodi:docname="square.svg"
   inkscape:version="1.1.1 (3bf5ae0d25, 2021-09-20)"
   xmlns:inkscape="http://www.inkscape.org/namespaces/inkscape"
   xmlns:sodipodi="http://sodipodi.sourceforge.net/DTD/sodipodi-0.dtd"
   xmlns="http://www.w3.org/2000/svg"
   xmlns:svg="http://www.w3.org/2000/svg"><sodipodi:namedview
   id="namedview58"
   pagecolor="#ffffff"
   bordercolor="#666666"
   borderopacity="1.0"
   inkscape:pageshadow="2"
   inkscape:pageopacity="0.0"
   inkscape:pagecheckerboard="0"
   showgrid="false"
   inkscape:zoom="0.61372549"
   inkscape:cx="35.846645"
   inkscape:cy="367.42811"
   inkscape:window-width="1920"
   inkscape:window-height="1051"
   inkscape:window-x="1920"
   inkscape:window-y="0"
   inkscape:window-maximized="1"
   inkscape:current-layer="g24" />
    <g
   transform="matrix(1,0,0,1,0,44.3)"
   id="g24">
        <g
   transform="matrix(1.00592,0,0,1.00592,20.1183,17.0609)"
   id="g4">
            <rect
   x="-20"
   y="-61"
   width="507"
   height="507"
   style="fill:none;"
   id="rect2" />
        </g>
        <rect
   x="0"
   y="-44.299999"
   width="510"
   height="510"
   style="fill:#359b6b;stroke-width:1.12916"
   id="rect6" />
        <g
   transform="matrix(1,0,0,1,-0.0231694,10.7)"
   id="g22">
            <g
   id="g14">
                <path
   d="M343.5,179.6C334.5,131.9 295.6,96 249,96C207.8,96 172.6,124.4 158.8,163.8C52.2,145.4 34.7,321.4 147,325.4C151.7,325.4 156.3,325.1 160.6,324.4C247.7,311.8 257.3,178.6 342.5,179.7L343.6,179.7L343.5,179.6Z"
   style="fill:url(#_Linear1);fill-rule:nonzero;"
   id="path10" />
                <path
   d="M160.5,324.4C247.6,311.8 257.2,178.6 342.4,179.7L343.5,179.7C449.6,181.9 429.8,323.9 353.5,324.5C293,324.9 160.5,324.4 160.5,324.4"
   style="fill:url(#_Linear2);fill-rule:nonzero;"
   id="path12" />
            </g>
            <g
   id="g20">
                <path
   d="M439.6,102.4C436.4,102 433.5,101.6 430.5,101.4C415.5,100.1 400.7,100.5 386.2,105.1C377.1,108 369.1,112.6 363.4,120.5C358.1,128 355,136.4 353.4,145.4C352.7,149.6 352.3,153.9 352,158.4C366.4,142.5 383.3,129.9 401.5,119C385,132 369.8,146.1 358.3,164.1C358.8,164.4 359.2,164.6 359.5,164.7C373.1,168.2 386.5,168.4 399.4,162C409.9,156.8 417.5,148.9 421.2,137.6C422.6,133.2 423.9,128.8 425.2,124.4C427.6,116.2 432.1,109.4 438.6,103.8C438.8,103.6 439,103.5 439.2,103.3C439.2,103 439.3,102.9 439.6,102.4Z"
   style="fill:url(#_Linear3);fill-rule:nonzero;"
   id="path16" />
                <path
   d="M350,74.7C350,75 349.9,75.3 349.9,75.6C350.1,80.6 348.5,85.2 346,89.5C344.6,91.9 343.1,94.3 342,96.8C338.4,104.6 339.5,112.2 343.6,119.5C345.8,123.4 348.9,126.6 352.8,129.4C355.3,124.3 359,120 358.6,113.9C358.3,108.8 358.5,103.6 358.5,98.2C359.3,104.2 360.2,110.1 361,116.2C361.6,115.7 362.1,115.3 362.6,114.9C365.3,112.9 367.9,110.7 370.7,108.9C372.1,108 372.5,107.2 372.2,105.6C371.4,100.4 369.1,95.7 366.2,91.4C362.1,85.2 356.9,79.9 351.1,75.2C350.9,75 350.6,74.8 350.3,74.6C350.4,74.7 350.2,74.7 350,74.7Z"
   style="fill:url(#_Linear4);fill-rule:nonzero;"
   id="path18" />
            </g>
        </g>
    </g>
    <defs
   id="defs54">
        <linearGradient
   id="_Linear1"
   x1="0"
   y1="0"
   x2="1"
   y2="0"
   gradientUnits="userSpaceOnUse"
   gradientTransform="matrix(1.40528e-14,-229.5,229.5,1.40528e-14,207,325.45)"><stop
     offset="0"
     style="stop-color:white;stop-opacity:1"
     id="stop26" /><stop
     offset="0"
     style="stop-color:white;stop-opacity:1"
     id="stop28" /><stop
     offset="1"
     style="stop-color:white;stop-opacity:0.7"
     id="stop30" /></linearGradient>
        <linearGradient
   id="_Linear2"
   x1="0"
   y1="0"
   x2="1"
   y2="0"
   gradientUnits="userSpaceOnUse"
   gradientTransform="matrix(8.87636e-15,144.962,-144.962,8.87636e-15,288.701,179.743)"><stop
     offset="0"
     style="stop-color:white;stop-opacity:1"
     id="stop33" /><stop
     offset="0"
     style="stop-color:white;stop-opacity:1"
     id="stop35" /><stop
     offset="1"
     style="stop-color:white;stop-opacity:0.7"
     id="stop37" /></linearGradient>
        <linearGradient
   id="_Linear3"
   x1="0"
   y1="0"
   x2="1"
   y2="0"
   gradientUnits="userSpaceOnUse"
   gradientTransform="matrix(87.6,0,0,87.6,351.977,133.889)"><stop
     offset="0"
     style="stop-color:white;stop-opacity:1"
     id="stop40" /><stop
     offset="0"
     style="stop-color:white;stop-opacity:1"
     id="stop42" /><stop
     offset="1"
     style="stop-color:white;stop-opacity:0.7"
     id="stop44" /></linearGradient>
        <linearGradient
   id="_Linear4"
   x1="0"
   y1="0"
   x2="1"
   y2="0"
   gradientUnits="userSpaceOnUse"
   gradientTransform="matrix(32.5512,0,0,32.5512,339.802,101.95)"><stop
     offset="0"
     style="stop-color:white;stop-opacity:1"
     id="stop47" /><stop
     offset="0"
     style="stop-color:white;stop-opacity:1"
     id="stop49" /><stop
     offset="1"
     style="stop-color:white;stop-opacity:0.7"
     id="stop51" /></linearGradient>


        </defs>
</svg>
